<svg xmlns="http://www.w3.org/2000/svg" viewBox="250 250 745 745">
  <style>.c{fill:#16171c}@media (prefers-color-scheme:dark){.c{fill:#f4f5f7}}</style>
  <defs>
    <mask id="k0" maskUnits="userSpaceOnUse" x="0" y="0" width="1254" height="1254">
      <rect width="1254" height="1254" fill="#fff"/>
      <rect x="-88" y="-88" width="511" height="601" rx="40" fill="#000" transform="matrix(1 0.4 0 1 455 333)"/>
    </mask>
    <mask id="k1" maskUnits="userSpaceOnUse" x="0" y="0" width="1254" height="1254">
      <rect width="1254" height="1254" fill="#fff"/>
      <rect x="-88" y="-88" width="511" height="621" rx="40" fill="#000" transform="matrix(1 0.4 0 1 280 408)"/>
    </mask>
  </defs>
  <g mask="url(#k0)"><rect class="c" x="0" y="0" width="335" height="405" rx="42" transform="matrix(1 0.4 0 1 630 258)"/></g>
  <g mask="url(#k1)"><rect class="c" x="0" y="0" width="335" height="425" rx="42" transform="matrix(1 0.4 0 1 455 333)"/></g>
  <rect class="c" x="0" y="0" width="335" height="445" rx="42" transform="matrix(1 0.4 0 1 280 408)"/>
</svg>
